<svg xmlns="http://www.w3.org/2000/svg" viewBox="0 0 256 256" role="img" aria-labelledby="title desc">
  <title id="title">ChatGPT</title>
  <desc id="desc">Logo ChatGPT untuk produk Catsoft</desc>
  <rect width="256" height="256" rx="56" fill="#f8fafc"/>
  <path fill="#111827" d="M239.18 106.2a64.72 64.72 0 0 0-5.57-53.1c-14.16-24.64-42.61-37.32-70.4-31.36A65.59 65.59 0 0 0 52.1 45.22 64.72 64.72 0 0 0 8.87 76.58c-14.31 24.6-11.06 55.63 8.03 76.74a64.67 64.67 0 0 0 5.52 53.1c14.18 24.65 42.65 37.32 70.45 31.36a64.72 64.72 0 0 0 48.75 21.74c28.48.03 53.71-18.36 62.41-45.48a64.77 64.77 0 0 0 43.23-31.36c14.14-24.56 10.88-55.42-8.08-76.48Zm-97.56 136.34a48.4 48.4 0 0 1-31.1-11.25l1.53-.87 51.67-29.83a8.6 8.6 0 0 0 4.25-7.37v-72.85l21.85 12.64c.22.11.37.32.41.56v60.37c-.06 26.82-21.79 48.55-48.61 48.6Zm-104.46-44.61a48.35 48.35 0 0 1-5.78-32.59l1.53.92 51.72 29.83a8.34 8.34 0 0 0 8.44 0l63.18-36.43v25.22a.87.87 0 0 1-.36.67l-52.33 30.18c-23.26 13.4-52.97 5.43-66.4-17.8ZM23.55 85.38a48.5 48.5 0 0 1 25.58-21.33v61.39a8.29 8.29 0 0 0 4.19 7.31l62.88 36.27-21.85 12.64a.82.82 0 0 1-.77 0l-52.23-30.13c-23.21-13.45-31.17-43.14-17.8-66.41v.26Zm179.47 41.7-63.08-36.63 21.79-12.59a.82.82 0 0 1 .77 0l52.23 30.18a48.6 48.6 0 0 1-7.31 87.64v-61.39a8.54 8.54 0 0 0-4.4-7.21Zm21.74-32.69-1.54-.93-51.62-30.08a8.39 8.39 0 0 0-8.49 0L99.98 99.81V74.59a.72.72 0 0 1 .31-.67l52.23-30.13a48.65 48.65 0 0 1 72.24 50.39v.21ZM88.06 139.1l-21.84-12.59a.87.87 0 0 1-.41-.61V65.69a48.65 48.65 0 0 1 79.75-37.35l-1.53.87-51.67 29.82a8.6 8.6 0 0 0-4.25 7.37l-.05 72.7Zm11.87-25.58 28.14-16.22 28.19 16.22v32.43l-28.09 16.22-28.19-16.22-.05-32.43Z"/>
</svg>
