<svg xmlns="http://www.w3.org/2000/svg" viewBox="0 0 256 256" role="img" aria-labelledby="title desc">
  <title id="title">Shopee</title>
  <desc id="desc">Logo Shopee untuk tautan toko Catsoft</desc>
  <rect width="256" height="256" rx="58" fill="#ee4d2d"/>
  <path fill="#fff" d="M184.8 83.3h-28.6c-1.6-19-13.3-33.3-28.2-33.3S101.4 64.3 99.8 83.3H71.2L62 205.5h132L184.8 83.3Zm-56.8-21c8 0 14.7 9.2 16.1 21h-32.2c1.4-11.8 8.1-21 16.1-21Zm.8 123.3c-18.6 0-31.8-9.7-38.1-15.8l9.4-13.2c5.8 5.4 16.6 13.3 29.4 13.3 9 0 14.6-4.2 14.6-10.6 0-6.7-6.1-9.4-19.2-14.4-15.7-6-29.9-12.5-29.9-30.7 0-17.5 13.2-29.7 33.1-29.7 14.3 0 26.2 5.4 34 12.1l-8.8 13.8c-6.2-4.9-15.3-9.7-25.4-9.7-8.3 0-13.4 4-13.4 10.2 0 6.6 6.2 9 19 13.8 16.2 6.1 30.2 13.2 30.2 31.2 0 18.4-13.9 29.7-34.9 29.7Z"/>
</svg>
