<svg xmlns="http://www.w3.org/2000/svg" viewBox="0 0 256 256" role="img" aria-labelledby="title desc">
  <title id="title">WhatsApp</title>
  <desc id="desc">Logo WhatsApp untuk tautan kontak Catsoft</desc>
  <circle cx="128" cy="128" r="116" fill="#25d366"/>
  <path fill="#fff" d="M82.8 184.4 90.5 156A65.7 65.7 0 0 1 80 120.2C80 83.6 109.7 54 146.3 54c17.7 0 34.4 6.9 46.9 19.4a65.8 65.8 0 0 1 19.4 46.8c0 36.6-29.8 66.3-66.3 66.3h-.1a66.2 66.2 0 0 1-31.7-8.1l-31.7 8.3Zm33.1-20.1 1.8 1.1a54.6 54.6 0 0 0 28.5 7.8h.1c29.2 0 53-23.8 53-53 0-14.2-5.5-27.5-15.5-37.5a52.7 52.7 0 0 0-37.5-15.5c-29.3 0-53 23.8-53 53 0 10 2.8 19.8 8.2 28.2l1.2 1.9-4.5 16.5 17.7-4.5Z"/>
  <path fill="#fff" d="M130.3 95.5c-1.2-2.6-2.5-2.7-3.7-2.8h-3.1c-1.1 0-2.8.4-4.3 2-1.5 1.6-5.6 5.5-5.6 13.3 0 7.8 5.8 15.4 6.6 16.5.8 1.1 11.2 18 27.7 24.6 13.7 5.4 16.5 4.3 19.5 4 3-.4 9.7-4 11.1-7.8 1.4-3.9 1.4-7.2 1-7.8-.4-.7-1.5-1.1-3.2-2l-11.4-5.6c-1.7-.8-2.9-1.2-4.1.5-1.2 1.7-4.7 5.6-5.8 6.8-1.1 1.2-2.1 1.3-3.9.4-1.7-.8-7.3-2.7-13.9-8.6-5.1-4.6-8.6-10.2-9.6-11.9-1-1.7-.1-2.7.8-3.5.8-.8 1.7-2.1 2.6-3.1.9-1 1.2-1.7 1.7-2.9.6-1.2.3-2.2-.1-3.1l-5.3-12Z"/>
</svg>
